<?xml version="1.0" encoding="UTF-8"?> <!-- Creator: CorelDRAW 2019 (64-Bit) --> <svg xmlns="http://www.w3.org/2000/svg" xmlns:xlink="http://www.w3.org/1999/xlink" xml:space="preserve" width="250px" height="249px" style="shape-rendering:geometricPrecision; text-rendering:geometricPrecision; image-rendering:optimizeQuality; fill-rule:evenodd; clip-rule:evenodd" viewBox="0 0 7.2 7.18"> <defs> <style type="text/css"> <![CDATA[ .fil0 {fill:#FF5500;fill-rule:nonzero} ]]> </style> </defs> <g id="Слой_x0020_1"> <metadata id="CorelCorpID_0Corel-Layer"></metadata> <g id="_2000994077616"> <path class="fil0" d="M7.08 1.67c0.11,-0.11 0.15,-0.27 0.1,-0.42 -0.04,-0.14 -0.17,-0.25 -0.32,-0.27l-0.62 -0.09c-0.06,-0.01 -0.12,-0.05 -0.14,-0.11l-0.28 -0.55c-0.07,-0.14 -0.21,-0.23 -0.36,-0.23 -0.16,0 -0.3,0.09 -0.36,0.23l-0.28 0.55c-0.03,0.06 -0.08,0.1 -0.14,0.11l-0.62 0.09c-0.16,0.02 -0.28,0.13 -0.33,0.27 -0.05,0.15 -0.01,0.31 0.1,0.42l0.45 0.43c0.05,0.05 0.07,0.11 0.06,0.17l-0.11 0.62c-0.03,0.15 0.04,0.3 0.16,0.39 0.07,0.06 0.15,0.08 0.24,0.08 0.06,0 0.13,-0.01 0.19,-0.05l0.55 -0.29c0.05,-0.03 0.12,-0.03 0.18,0l0.55 0.29c0.14,0.08 0.3,0.07 0.43,-0.03 0.12,-0.09 0.18,-0.24 0.16,-0.39l-0.02 -0.12c-0.01,-0.06 -0.07,-0.09 -0.13,-0.08 -0.05,0.01 -0.09,0.06 -0.08,0.12l0.02 0.12c0.01,0.07 -0.02,0.14 -0.08,0.18 -0.06,0.05 -0.14,0.05 -0.2,0.02l-0.55 -0.29c-0.12,-0.06 -0.26,-0.06 -0.38,0l-0.55 0.29c-0.07,0.03 -0.14,0.03 -0.2,-0.02 -0.07,-0.04 -0.09,-0.11 -0.08,-0.18l0.1 -0.62c0.03,-0.13 -0.02,-0.26 -0.11,-0.36l-0.45 -0.43c-0.05,-0.06 -0.07,-0.13 -0.05,-0.2 0.03,-0.07 0.08,-0.12 0.16,-0.13l0.62 -0.09c0.13,-0.02 0.24,-0.1 0.3,-0.22l0.28 -0.56c0.03,-0.07 0.09,-0.11 0.17,-0.11 0.07,0 0.14,0.04 0.17,0.11l0.28 0.56c0.06,0.12 0.17,0.2 0.3,0.22l0.62 0.09c0.07,0.01 0.13,0.06 0.15,0.13 0.03,0.07 0.01,0.14 -0.04,0.2l-0.45 0.43c-0.1,0.1 -0.14,0.23 -0.12,0.36l0.01 0.02c0.01,0.06 0.06,0.1 0.12,0.09 0.06,-0.01 0.09,-0.07 0.08,-0.13l0 -0.02c-0.01,-0.06 0.01,-0.12 0.06,-0.17l0.44 -0.43z"></path> <path class="fil0" d="M5.81 4.56c0.07,-0.09 0.12,-0.2 0.12,-0.32 0,-0.28 -0.23,-0.5 -0.5,-0.5l-1.61 0c0,0 -0.02,-0.05 -0.03,-0.08 0,0 0,0 0,0 -0.02,-0.05 -0.03,-0.11 -0.02,-0.16 0.02,-0.18 0.03,-0.37 0.03,-0.52 0.01,-0.39 -0.06,-0.67 -0.23,-0.86 -0.18,-0.2 -0.42,-0.31 -0.68,-0.31 0,0 -0.01,0 -0.01,0 -0.14,0 -0.26,0.12 -0.26,0.27l0 0.47c0,0.3 -0.05,0.71 -0.28,1 -0.24,0.3 -0.45,0.3 -0.8,0.29 -0.02,0 -0.03,0 -0.04,0l0 -0.13c0,-0.21 -0.17,-0.38 -0.38,-0.38l-0.74 0c-0.21,0 -0.38,0.17 -0.38,0.38l0 1.07c0,0.05 0.05,0.1 0.11,0.1 0.05,0 0.1,-0.05 0.1,-0.1l0 -1.07c0,-0.09 0.08,-0.17 0.17,-0.17l0.74 0c0.09,0 0.17,0.08 0.17,0.17l0 3.09c0,0.09 -0.08,0.17 -0.17,0.17l-0.74 0c-0.09,0 -0.17,-0.08 -0.17,-0.17l0 -1.54c0,-0.06 -0.05,-0.11 -0.1,-0.11 -0.06,0 -0.11,0.05 -0.11,0.11l0 1.54c0,0.21 0.17,0.38 0.38,0.38l0.74 0c0.21,0 0.38,-0.17 0.38,-0.38l0 -0.16 0.14 0c0.07,0 0.14,0.02 0.19,0.07 0.02,0.01 0.04,0.02 0.05,0.04 0.14,0.11 0.38,0.32 0.73,0.32l2.6 0c0.27,0 0.49,-0.22 0.49,-0.49 0,-0.12 -0.04,-0.23 -0.11,-0.31 0.2,-0.07 0.34,-0.26 0.34,-0.47 0,-0.13 -0.05,-0.24 -0.12,-0.33 0.17,-0.07 0.3,-0.25 0.3,-0.45 0,-0.21 -0.13,-0.38 -0.3,-0.46zm-1.28 -0.61l0.9 0c0.16,0 0.28,0.13 0.28,0.29 0,0.15 -0.12,0.28 -0.28,0.28l-0.9 0c-0.16,0 -0.29,-0.13 -0.29,-0.28 0,-0.16 0.13,-0.29 0.29,-0.29zm-0.63 2.91l-1.29 0c-0.27,0 -0.46,-0.16 -0.59,-0.27 -0.02,-0.02 -0.04,-0.03 -0.05,-0.05 -0.1,-0.07 -0.21,-0.11 -0.33,-0.11l-0.14 0 0 -2.38c0.01,0 0.02,0 0.03,0 0.37,0.01 0.67,0.01 0.97,-0.37 0.15,-0.18 0.33,-0.53 0.33,-1.13l0 -0.47c0,-0.03 0.02,-0.06 0.05,-0.06 0.01,0 0.01,0 0.01,0 0.19,0 0.39,0.09 0.52,0.24 0.13,0.15 0.19,0.38 0.18,0.71 0,0.15 -0.01,0.33 -0.03,0.5 -0.01,0.1 0,0.19 0.04,0.28 0,0 0,0 0,0 0,0.01 0,0.01 0,0.01 0,0 0,0 0,0 0.04,0.08 0.06,0.16 0.07,0.25 0,0.11 -0.02,0.22 -0.07,0.32 0,0.01 -0.1,0.23 -0.37,0.35 -0.06,0.02 -0.08,0.08 -0.06,0.14 0.08,0.18 0.39,-0.09 0.46,-0.17 0.07,-0.07 0.13,-0.15 0.17,-0.23 0.06,-0.14 0.08,-0.28 0.08,-0.42 0,-0.02 0,-0.03 -0.01,-0.05l0.25 0c-0.05,0.08 -0.09,0.18 -0.09,0.29 0,0.2 0.13,0.38 0.31,0.45 -0.08,0.09 -0.12,0.2 -0.12,0.33 0,0.12 0.04,0.23 0.12,0.32 -0.18,0.08 -0.31,0.25 -0.31,0.46 0,0.12 0.04,0.22 0.11,0.31 -0.19,0.07 -0.33,0.25 -0.33,0.47 0,0.1 0.03,0.2 0.09,0.28zm1.31 0l-0.9 0c-0.16,0 -0.29,-0.13 -0.29,-0.28 0,-0.16 0.13,-0.29 0.29,-0.29l0.9 0c0.15,0 0.28,0.13 0.28,0.29 0,0.15 -0.13,0.28 -0.28,0.28zm0.22 -0.78l-0.9 0c-0.16,0 -0.29,-0.13 -0.29,-0.28 0,-0.16 0.13,-0.29 0.29,-0.29l0.9 0c0.16,0 0.28,0.13 0.28,0.29 0,0.15 -0.12,0.28 -0.28,0.28zm0.18 -0.78l-0.9 0c-0.15,0 -0.28,-0.13 -0.28,-0.28 0,-0.16 0.13,-0.29 0.28,-0.29l0.9 0c0.16,0 0.29,0.13 0.29,0.29 0,0.15 -0.13,0.28 -0.29,0.28z"></path> </g> </g> </svg> 