<?xml version="1.0" encoding="UTF-8"?>
<!DOCTYPE svg PUBLIC "-//W3C//DTD SVG 1.1//EN" "http://www.w3.org/Graphics/SVG/1.1/DTD/svg11.dtd">
<!-- Creator: CorelDRAW 2019 (64-Bit) -->
<svg xmlns="http://www.w3.org/2000/svg" xml:space="preserve" width="144px" height="144px" version="1.1" style="shape-rendering:geometricPrecision; text-rendering:geometricPrecision; image-rendering:optimizeQuality; fill-rule:evenodd; clip-rule:evenodd"
viewBox="0 0 11.02 11.02"
 xmlns:xlink="http://www.w3.org/1999/xlink">
 <defs>
  <style type="text/css">
   <![CDATA[
    .fil1 {fill:#FEFEFE}
    .fil0 {fill:#FF5500}
   ]]>
  </style>
 </defs>
 <g id="Слой_x0020_1">
  <metadata id="CorelCorpID_0Corel-Layer"/>
  <rect class="fil0" width="11.02" height="11.02" rx="1.19" ry="1.19"/>
  <g id="_2649457293424">
   <g>
    <g>
     <path class="fil1" d="M8.84 2.43l-6.65 0c-0.39,0 -0.71,0.32 -0.71,0.71l0 4.73c0,0.39 0.31,0.71 0.71,0.71l6.65 0c0.39,0 0.71,-0.32 0.71,-0.71l0 -4.73c0,-0.39 -0.32,-0.71 -0.71,-0.71zm-0.1 0.48l-3.21 3.21 -3.24 -3.21 6.45 0zm-6.79 4.86l0 -4.53 2.28 2.26 -2.28 2.27zm0.33 0.34l2.28 -2.28 0.8 0.79c0.09,0.09 0.24,0.09 0.34,0l0.77 -0.78 2.27 2.27 -6.46 0zm6.79 -0.34l-2.26 -2.26 2.26 -2.27 0 4.53z"/>
    </g>
   </g>
   <g>
   </g>
   <g>
   </g>
   <g>
   </g>
   <g>
   </g>
   <g>
   </g>
   <g>
   </g>
   <g>
   </g>
   <g>
   </g>
   <g>
   </g>
   <g>
   </g>
   <g>
   </g>
   <g>
   </g>
   <g>
   </g>
   <g>
   </g>
   <g>
   </g>
  </g>
 </g>
</svg>
