<?xml version="1.0" encoding="UTF-8"?>
<!DOCTYPE svg PUBLIC "-//W3C//DTD SVG 1.1//EN" "http://www.w3.org/Graphics/SVG/1.1/DTD/svg11.dtd">
<!-- Creator: CorelDRAW 2019 (64-Bit) -->
<svg xmlns="http://www.w3.org/2000/svg" xml:space="preserve" width="144px" height="144px" version="1.1" style="shape-rendering:geometricPrecision; text-rendering:geometricPrecision; image-rendering:optimizeQuality; fill-rule:evenodd; clip-rule:evenodd"
viewBox="0 0 14.46 14.46"
 xmlns:xlink="http://www.w3.org/1999/xlink">
 <defs>
  <style type="text/css">
   <![CDATA[
    .fil1 {fill:#FEFEFE}
    .fil0 {fill:#FF5500}
   ]]>
  </style>
 </defs>
 <g id="Слой_x0020_1">
  <metadata id="CorelCorpID_0Corel-Layer"/>
  <rect class="fil0" width="14.46" height="14.46" rx="1.56" ry="1.56"/>
  <path class="fil1" d="M12.3 3.04c-0.13,-0.15 -0.32,-0.24 -0.54,-0.24 -0.12,0 -0.24,0.03 -0.37,0.08l-8.86 3.38c-0.47,0.18 -0.54,0.45 -0.53,0.59 0,0.15 0.08,0.41 0.56,0.56 0,0.01 0,0.01 0.01,0.01l1.84 0.52 0.99 2.85c0.13,0.38 0.44,0.62 0.79,0.62 0.23,0 0.45,-0.09 0.64,-0.27l1.14 -1.04 1.64 1.32c0,0 0,0 0,0l0.02 0.02c0,0 0,0 0,0 0.19,0.14 0.39,0.22 0.58,0.22l0 0c0.39,0 0.69,-0.28 0.78,-0.72l1.45 -7.17c0.06,-0.29 0.01,-0.55 -0.14,-0.73zm-7.28 4.8l3.55 -1.81 -2.21 2.35c-0.04,0.04 -0.06,0.08 -0.08,0.13l-0.42 1.73 -0.84 -2.4zm1.39 2.85c-0.01,0.02 -0.03,0.03 -0.04,0.04l0.39 -1.6 0.72 0.58 -1.07 0.98zm5.43 -7.04l-1.45 7.17c-0.02,0.06 -0.06,0.22 -0.18,0.22 -0.05,0 -0.12,-0.03 -0.2,-0.08l-1.87 -1.51c0,0 0,0 0,0l-1.11 -0.89 3.19 -3.4c0.11,-0.1 0.12,-0.27 0.03,-0.39 -0.09,-0.12 -0.26,-0.16 -0.39,-0.09l-5.25 2.68 -1.86 -0.53 8.85 -3.38c0.08,-0.03 0.13,-0.03 0.16,-0.03 0.02,0 0.05,0 0.07,0.01 0.01,0.02 0.03,0.09 0.01,0.22l0 0zm0 0z"/>
 </g>
</svg>
